<svg width="117" height="32" viewBox="0 0 117 32" fill="none" xmlns="http://www.w3.org/2000/svg">
<path d="M43.048 15.848V18.608H48.448V22.184H43.048V25.232H49.168V29H38.344V12.08H49.168V15.848H43.048ZM69.0844 15.416C70.7804 15.416 72.1084 15.928 73.0684 16.952C74.0444 17.976 74.5324 19.376 74.5324 21.152V29H69.8284V21.776C69.8284 21.056 69.6284 20.496 69.2284 20.096C68.8284 19.696 68.2844 19.496 67.5964 19.496C66.9084 19.496 66.3644 19.696 65.9644 20.096C65.5644 20.496 65.3644 21.056 65.3644 21.776V29H60.6604V21.776C60.6604 21.056 60.4604 20.496 60.0604 20.096C59.6764 19.696 59.1404 19.496 58.4524 19.496C57.7484 19.496 57.1964 19.696 56.7964 20.096C56.3964 20.496 56.1964 21.056 56.1964 21.776V29H51.4924V15.536H56.1964V17.312C56.6124 16.736 57.1484 16.28 57.8044 15.944C58.4764 15.592 59.2444 15.416 60.1084 15.416C61.1004 15.416 61.9804 15.632 62.7484 16.064C63.5324 16.496 64.1484 17.104 64.5964 17.888C65.0764 17.152 65.7084 16.56 66.4924 16.112C67.2764 15.648 68.1404 15.416 69.0844 15.416Z" fill="#333333"/>
<path d="M81.8136 25.4H87.0696V29H77.1096V12.08H81.8136V25.4ZM88.1307 22.256C88.1307 20.864 88.3787 19.648 88.8747 18.608C89.3867 17.568 90.0747 16.768 90.9387 16.208C91.8187 15.648 92.7947 15.368 93.8667 15.368C94.7947 15.368 95.5947 15.552 96.2667 15.92C96.9387 16.288 97.4587 16.784 97.8267 17.408V15.536H102.531V29H97.8267V27.128C97.4587 27.752 96.9307 28.248 96.2427 28.616C95.5707 28.984 94.7787 29.168 93.8667 29.168C92.7947 29.168 91.8187 28.888 90.9387 28.328C90.0747 27.768 89.3867 26.968 88.8747 25.928C88.3787 24.872 88.1307 23.648 88.1307 22.256ZM97.8267 22.256C97.8267 21.392 97.5867 20.712 97.1067 20.216C96.6427 19.72 96.0667 19.472 95.3787 19.472C94.6747 19.472 94.0907 19.72 93.6267 20.216C93.1627 20.696 92.9307 21.376 92.9307 22.256C92.9307 23.12 93.1627 23.808 93.6267 24.32C94.0907 24.816 94.6747 25.064 95.3787 25.064C96.0667 25.064 96.6427 24.816 97.1067 24.32C97.5867 23.824 97.8267 23.136 97.8267 22.256ZM109.915 17.912C110.443 17.144 111.083 16.536 111.835 16.088C112.587 15.64 113.395 15.416 114.259 15.416V20.432H112.939C111.915 20.432 111.155 20.632 110.659 21.032C110.163 21.432 109.915 22.128 109.915 23.12V29H105.211V15.536H109.915V17.912Z" fill="#4C74FF"/>
<path d="M28.3622 11.2288V28.9726H24.5242V8.21642L14.1411 0V2.39187V28.9726H9.48241V5.92963L0 13.5406V32H3.04738C3.04738 32 3.04738 29.5831 3.04738 14.9867L6.47506 12.2946V31.975H17.1884V6.2749L21.3066 9.39233V32H31.3145V13.5406L28.3622 11.2288Z" fill="#4C74FF"/>
</svg>
